<svg xmlns="http://www.w3.org/2000/svg" width="728" height="696" viewBox="0 0 728 696" version="1.1">
	<path d="M 354.998 39.503 C 353.448 41.370, 352.377 52.261, 351.477 75.288 C 350.986 87.851, 350.396 93.461, 349.469 94.388 C 348.694 95.163, 344.331 95.985, 338.828 96.392 C 321.311 97.690, 297.547 101.928, 281 106.704 C 203.903 128.959, 139.686 190.642, 114.536 266.599 C 108.130 285.947, 102.938 311.641, 101.474 331.250 C 100.499 344.310, 101.462 343.759, 77.500 344.979 C 47.847 346.490, 46 346.872, 46 351.500 C 46 355.817, 47.902 356.246, 71.279 357.194 C 83.500 357.689, 95.075 358.411, 97 358.797 L 100.500 359.500 101.292 368 C 105.916 417.599, 121.528 460.487, 148.797 498.500 C 192.320 559.170, 259.310 597.993, 332.500 604.963 C 347.947 606.434, 348.725 606.618, 350.073 609.137 C 350.729 610.362, 351.696 622.123, 352.374 637.112 C 353.352 658.710, 353.815 663.244, 355.188 664.616 C 357.412 666.841, 361.796 665.711, 362.492 662.735 C 362.779 661.506, 363.618 649.061, 364.357 635.081 C 365.645 610.693, 365.791 609.588, 367.961 607.831 C 369.432 606.640, 371.856 606, 374.899 606 C 381.468 606, 401.566 603.414, 408.604 601.664 C 411.847 600.857, 416.214 599.903, 418.309 599.542 C 420.404 599.182, 428.776 596.701, 436.914 594.028 C 495.982 574.630, 541.720 539.231, 575.199 487 C 596.633 453.561, 610.762 413.096, 613.956 376 C 615.493 358.149, 614.904 359.399, 622.130 358.644 C 625.520 358.290, 632.390 357.980, 637.397 357.956 C 650.976 357.891, 666.843 356.376, 668.520 354.983 C 669.334 354.308, 670 352.697, 670 351.403 C 670 347.148, 666.281 346.297, 641.691 344.923 C 628.282 344.173, 618.262 343.181, 617.347 342.512 C 616.201 341.674, 615.426 337.697, 614.407 327.437 C 609.891 281.957, 597.012 245.287, 572.809 209 C 552.771 178.957, 532.227 158.364, 502.500 138.527 C 465.186 113.625, 422.236 98.993, 378.693 96.349 C 369.169 95.770, 367.680 95.434, 366.513 93.595 C 365.584 92.130, 364.871 84.062, 364.142 66.778 C 363.565 53.068, 362.617 41.153, 362.015 40.028 C 360.735 37.637, 356.791 37.342, 354.998 39.503 M 339 110.627 C 305.965 114.732, 287.266 119.060, 265.849 127.560 C 226.469 143.188, 195.424 166.379, 166.868 201.500 C 141.787 232.348, 124.710 271.790, 118.524 313.158 C 112.606 352.736, 115.286 385.696, 127.581 424.550 C 129.505 430.627, 131.954 437.039, 133.024 438.800 L 134.971 442 239.794 442 C 324.978 442, 344.956 441.753, 346.421 440.682 C 349.133 438.698, 351.182 417.784, 350.799 396 C 350.519 380.069, 350.288 378.119, 348.226 374.251 C 345.071 368.334, 340.313 365.589, 327 362.004 C 320.675 360.301, 313.250 357.754, 310.500 356.344 C 291.313 346.507, 281.426 330.873, 273.364 297.621 C 270.950 287.665, 271.181 285, 274.457 285 C 277.498 285, 304.267 294.413, 311.947 298.183 C 327.753 305.942, 341.326 322.403, 346.078 339.576 C 347.284 343.934, 348.516 348.175, 348.816 349 C 350.201 352.808, 350.810 335.688, 350.901 290.398 L 351 241.296 348.719 237.911 C 346.163 234.117, 342.465 232.400, 338.890 233.345 C 337.576 233.692, 330.669 238.038, 323.543 243.003 C 316.417 247.967, 310.149 251.883, 309.615 251.705 C 309.080 251.527, 308.190 250.663, 307.637 249.786 C 306.851 248.540, 308.533 245.300, 315.325 234.979 C 324.650 220.811, 325.795 218.169, 324.374 214.110 C 323.380 211.271, 320.683 210.388, 299.500 205.967 C 294 204.819, 288.712 203.652, 287.750 203.373 C 285.186 202.629, 285.548 199.138, 288.250 198.540 C 313.155 193.025, 321.726 190.667, 323.741 188.773 C 327.783 184.976, 327.029 182.943, 314.802 164.667 C 310.448 158.160, 307.028 152.085, 307.203 151.167 C 307.891 147.555, 311.696 148.953, 322.568 156.809 C 336.416 166.816, 339.304 168.312, 343.146 167.468 C 347.170 166.584, 349.599 162.322, 351.056 153.589 C 351.707 149.690, 353.008 142.900, 353.947 138.500 C 355.494 131.253, 355.876 130.500, 358.006 130.500 C 360.752 130.500, 360.905 130.932, 364.525 148.887 C 367.591 164.095, 368.518 166.147, 372.889 167.399 C 377.208 168.635, 382.418 166.014, 396.439 155.550 C 404.463 149.562, 406.728 148.319, 408.189 149.101 C 409.185 149.634, 410 150.673, 410 151.411 C 410 152.148, 405.941 158.952, 400.980 166.530 C 396.019 174.109, 391.686 181.404, 391.350 182.742 C 390.946 184.353, 391.404 186.073, 392.707 187.837 C 394.388 190.113, 396.699 190.986, 408.587 193.843 C 431.723 199.401, 430.162 198.855, 429.812 201.264 C 429.562 202.988, 428.405 203.655, 424 204.613 C 401.041 209.604, 394.332 211.304, 393.187 212.419 C 390.103 215.422, 391.520 219.571, 400.404 233.548 C 409.068 247.181, 410.440 251.110, 406.780 251.807 C 405.834 251.988, 398.873 247.830, 391.312 242.568 C 383.750 237.305, 376.544 233, 375.298 233 C 371.101 233, 367.091 237.876, 365.908 244.415 C 364.429 252.586, 365.066 346.766, 366.617 349.388 C 367.585 351.024, 367.901 350.557, 368.983 345.888 C 373.668 325.678, 385.943 308.722, 402.655 299.376 C 412.622 293.802, 441.646 284.045, 443.976 285.485 C 446.315 286.931, 444.309 297.563, 438.440 314.835 C 432.076 333.562, 422.247 346.977, 409.353 354.533 C 404.214 357.545, 396.186 360.445, 387.229 362.525 C 376.002 365.132, 369.332 369.945, 367.168 377 C 365.157 383.556, 364.790 394.474, 365.960 413 C 367.278 433.871, 368.124 438.887, 370.641 440.727 C 372.047 441.755, 393.247 441.959, 477.421 441.755 L 582.447 441.500 586.304 431 C 591.249 417.541, 595.493 400.927, 598.183 384.500 C 601.174 366.244, 601.181 335.409, 598.200 315.374 C 591.821 272.507, 575.088 233.835, 548.760 201.112 C 531.031 179.075, 517.043 166.159, 495 151.469 C 463.963 130.786, 429.510 117.443, 394.117 112.399 C 383.896 110.942, 346.211 109.731, 339 110.627 M 350.007 181.593 C 335.327 187.959, 333.361 206.974, 346.306 217.381 C 349.559 219.996, 351.125 220.498, 357.074 220.834 C 365.576 221.315, 368.695 220.139, 373.899 214.494 C 381.542 206.202, 381.860 195.466, 374.704 187.316 C 368.763 180.549, 358.108 178.080, 350.007 181.593 M 468.205 207.852 C 467.281 208.438, 468.853 210.233, 473.678 214.102 C 482.768 221.391, 487.412 228.228, 489.612 237.560 C 492.554 250.040, 489.585 262.280, 481.162 272.392 C 477.647 276.612, 470.593 282.952, 467.144 284.992 C 465.699 285.846, 465.682 286.085, 467 286.966 C 470.635 289.397, 485.868 287.148, 494.051 282.974 C 499.388 280.251, 507.677 271.357, 510.796 265.006 C 513.259 259.991, 513.500 258.474, 513.500 248 C 513.500 237.045, 513.351 236.215, 510.354 230.484 C 504.673 219.622, 493.869 211.596, 480.769 208.508 C 473.694 206.839, 470.097 206.652, 468.205 207.852 M 228.243 213.750 C 227.619 216.363, 225.905 223.900, 224.435 230.500 C 222.453 239.397, 221.180 243.040, 219.511 244.590 C 217.988 246.004, 212.159 247.921, 201.468 250.524 L 185.674 254.368 190.685 256.071 C 193.440 257.008, 200.959 259.018, 207.393 260.539 C 214.927 262.319, 219.394 263.872, 219.941 264.901 C 220.408 265.781, 221.712 270.775, 222.839 276 C 230.052 309.436, 230.314 310.229, 231.410 301.968 C 231.794 299.071, 232.940 293.056, 233.955 288.600 C 234.971 284.145, 236.589 277.012, 237.551 272.748 C 238.513 268.485, 239.795 264.596, 240.400 264.107 C 241.005 263.618, 248.226 261.567, 256.448 259.548 C 270.713 256.046, 276.575 254.094, 273 254.037 C 271.527 254.014, 259.058 250.697, 245.772 246.795 C 238.031 244.521, 239.221 246.841, 233.947 223.750 C 232.093 215.637, 230.307 209, 229.978 209 C 229.648 209, 228.867 211.137, 228.243 213.750 M 142.472 458.045 C 140.986 460.449, 159.540 489.594, 172.045 504.500 C 214.496 555.103, 277.486 587.647, 338.893 590.701 L 351.285 591.317 350.795 571.810 C 350.526 561.082, 349.969 551.759, 349.558 551.093 C 349.055 550.280, 345.638 552.954, 339.155 559.234 C 330.261 567.849, 320 575.997, 320 574.444 C 320 572.658, 328.525 557.979, 337.361 544.551 C 342.808 536.273, 347.930 527.700, 348.742 525.500 C 350.670 520.281, 351.867 486, 350.121 486 C 349.490 486, 346.842 489.333, 344.237 493.406 C 334.832 508.111, 322.167 521.020, 294 544.608 C 284.611 552.470, 275.757 559, 274.484 559 C 273.349 559, 281.059 545.843, 287.082 537.500 C 290.259 533.100, 296.940 525.308, 301.929 520.184 C 306.918 515.061, 311 510.448, 311 509.934 C 311 508.705, 309.930 508.736, 290.266 510.530 C 273.230 512.085, 257.914 514.423, 241.267 518.010 C 230.060 520.426, 230.703 520.424, 231.978 518.041 C 233.770 514.692, 245.744 506.887, 252.784 504.478 C 256.478 503.214, 265.800 501.182, 273.500 499.963 C 303.472 495.216, 315.473 490.893, 326.312 480.938 C 333.776 474.083, 343.115 459.320, 340.883 457.906 C 338.823 456.602, 143.279 456.739, 142.472 458.045 M 374 458.773 C 374 461.933, 381.346 473.242, 387.500 479.556 C 397.136 489.443, 411.092 495.225, 432 497.990 C 453.979 500.897, 467.565 504.835, 476.172 510.792 C 481.271 514.321, 485.587 518.746, 484.748 519.585 C 484.422 519.911, 479.283 519.255, 473.328 518.127 C 457.800 515.186, 436.651 512.108, 420.695 510.469 C 413.102 509.688, 406.464 508.787, 405.945 508.466 C 405.425 508.145, 405 508.658, 405 509.607 C 405 510.556, 408.976 515.195, 413.835 519.916 C 425.715 531.459, 437.704 547.262, 441.532 556.423 L 443.079 560.125 436.919 555.812 C 415.430 540.769, 384.379 511.563, 374.321 496.935 C 370.569 491.479, 367.050 487.166, 366.500 487.351 C 365.882 487.559, 365.542 493.951, 365.610 504.106 C 365.748 524.816, 366.757 528.572, 375.490 540.911 C 387.438 557.791, 398.026 575, 396.465 575 C 393.845 575, 373.967 558.317, 370.490 553.200 C 369.237 551.356, 367.946 550.278, 367.621 550.804 C 366.735 552.238, 365.018 573.318, 365.009 582.880 L 365 591.261 378.250 590.750 C 413.662 589.386, 457.498 574.437, 490.706 552.400 C 501.972 544.925, 517.350 532.719, 526.333 524.124 C 532.511 518.212, 548.249 499.509, 554.448 490.710 C 559.558 483.458, 574 459.154, 574 457.808 C 574 457.363, 529 457, 474 457 C 378.940 457, 374 457.088, 374 458.773" stroke="none" fill="#dab371" fill-rule="evenodd"/>
</svg>