<svg viewBox="0 0 1000 200" xmlns="http://www.w3.org/2000/svg">
  <defs>
    <style>
      .logo-text-light {
        font-family: 'Georgia', 'Times New Roman', serif;
        fill: #F5E4C3;
        letter-spacing: 0.05em;
      }
      .aligned {
        font-size: 84px;
        font-weight: 300;
      }
      .emergence {
        font-size: 84px;
        font-weight: bold;
      }
    </style>
  </defs>
  
  <!-- Aligned Emergence compass-tree symbol -->
  <g transform="translate(90, 100) scale(1.8)">
    <!-- Outer compass circle -->
    <circle cx="0" cy="0" r="48" fill="none" stroke="#F5E4C3" stroke-width="2"/>
    <!-- Cardinal direction markers -->
    <line x1="0" y1="-54" x2="0" y2="-42" stroke="#F5E4C3" stroke-width="2"/>
    <line x1="0" y1="42" x2="0" y2="54" stroke="#F5E4C3" stroke-width="2"/>
    <line x1="-54" y1="0" x2="-42" y2="0" stroke="#F5E4C3" stroke-width="2"/>
    <line x1="42" y1="0" x2="54" y2="0" stroke="#F5E4C3" stroke-width="2"/>
    <!-- Tree trunk -->
    <line x1="0" y1="0" x2="0" y2="15" stroke="#F5E4C3" stroke-width="3"/>
    <!-- Tree leaves/crown (sun-like flower) -->
    <g transform="translate(0,-15)">
      <!-- Central circle -->
      <circle cx="0" cy="0" r="4" fill="none" stroke="#F5E4C3" stroke-width="1.5"/>
      <!-- Petals/rays -->
      <path d="M0,-8 L-3,-15 L0,-12 L3,-15 Z" fill="#F5E4C3"/>
      <path d="M8,0 L15,-3 L12,0 L15,3 Z" fill="#F5E4C3"/>
      <path d="M0,8 L3,15 L0,12 L-3,15 Z" fill="#F5E4C3"/>
      <path d="M-8,0 L-15,3 L-12,0 L-15,-3 Z" fill="#F5E4C3"/>
      <path d="M5.7,-5.7 L12,-9 L9,-6 L12,-3 Z" fill="#F5E4C3"/>
      <path d="M5.7,5.7 L9,12 L6,9 L3,12 Z" fill="#F5E4C3"/>
      <path d="M-5.7,5.7 L-12,9 L-9,6 L-12,3 Z" fill="#F5E4C3"/>
      <path d="M-5.7,-5.7 L-9,-12 L-6,-9 L-3,-12 Z" fill="#F5E4C3"/>
    </g>
    <!-- Four-pointed star (left) - made smaller and moved up -->
    <g transform="translate(-25,-15)">
      <path d="M0,-3 L-1,-1.5 L0,0 L1,-1.5 Z" fill="#F5E4C3"/>
      <path d="M3,0 L1.5,-1 L0,0 L1.5,1 Z" fill="#F5E4C3"/>
      <path d="M0,3 L1,1.5 L0,0 L-1,1.5 Z" fill="#F5E4C3"/>
      <path d="M-3,0 L-1.5,1 L0,0 L-1.5,-1 Z" fill="#F5E4C3"/>
    </g>
    <!-- Crescent moon (right) -->
    <path d="M20,-15 C25,-15 25,-10 20,-10 C22,-12.5 22,-12.5 20,-15" fill="#F5E4C3"/>
    <!-- Horizontal ground line -->
    <line x1="-20" y1="0" x2="20" y2="0" stroke="#F5E4C3" stroke-width="1.5"/>
    <!-- Tree roots -->
    <g stroke="#F5E4C3" stroke-width="1.5" fill="none">
      <path d="M-5,15 Q-10,20 -15,25"/>
      <path d="M0,18 Q0,23 0,28"/>
      <path d="M5,15 Q10,20 15,25"/>
      <path d="M-2,16 Q-7,21 -12,26"/>
      <path d="M2,16 Q7,21 12,26"/>
    </g>
  </g>
  
  <!-- ALIGNED text -->
  <text x="200" y="80" class="logo-text-light aligned">ALIGNED</text>
  
  <!-- EMERGENCE text -->
  <text x="200" y="160" class="logo-text-light emergence">EMERGENCE</text>
</svg>
