<svg viewBox="0 0 1000 200" xmlns="http://www.w3.org/2000/svg">
  <defs>
    <style>
      .logo-text-green {
        font-family: 'Helvetica Neue', 'Helvetica', 'Arial', sans-serif;
        fill: #2c5530;
      }
      .aligned {
        font-size: 58px;
        font-weight: 300;
        letter-spacing: 1.3em;
      }
      .emergence {
        font-size: 92px;
        font-weight: 700;
        letter-spacing: 0.2em;
        font-family: 'Times New Roman', 'Georgia', serif;
      }
    </style>
  </defs>
  
  <!-- Aligned Emergence compass-tree symbol -->
  <g transform="translate(90, 100) scale(1.8)">
    <!-- Outer compass circle -->
    <circle cx="0" cy="0" r="48" fill="none" stroke="#2c5530" stroke-width="4"/>
    <!-- Cardinal direction markers - triangular compass points -->
    <path d="M0,-54 L-3,-45 L3,-45 Z" fill="#2c5530"/>
    <path d="M0,54 L-3,45 L3,45 Z" fill="#2c5530"/>
    <path d="M-54,0 L-45,-3 L-45,3 Z" fill="#2c5530"/>
    <path d="M54,0 L45,-3 L45,3 Z" fill="#2c5530"/>
    <!-- Tree trunk -->
    <line x1="0" y1="0" x2="0" y2="15" stroke="#2c5530" stroke-width="3"/>
    
    <!-- Radial flow lines from center -->
    <line x1="0" y1="0" x2="-15" y2="25" stroke="#2c5530" stroke-width="1" opacity="0.6"/>
    <line x1="0" y1="0" x2="0" y2="25" stroke="#2c5530" stroke-width="1" opacity="0.6"/>
    <line x1="0" y1="0" x2="15" y2="25" stroke="#2c5530" stroke-width="1" opacity="0.6"/>
    <line x1="0" y1="0" x2="-25" y2="20" stroke="#2c5530" stroke-width="1" opacity="0.4"/>
    <line x1="0" y1="0" x2="25" y2="20" stroke="#2c5530" stroke-width="1" opacity="0.4"/>
    <!-- Tree leaves/crown (sun-like flower) -->
    <g transform="translate(0,-15)">
      <!-- Central circle -->
      <circle cx="0" cy="0" r="4" fill="none" stroke="#2c5530" stroke-width="1.5"/>
      <!-- Petals/rays -->
      <path d="M0,-8 L-3,-15 L0,-12 L3,-15 Z" fill="#2c5530"/>
      <path d="M8,0 L15,-3 L12,0 L15,3 Z" fill="#2c5530"/>
      <path d="M0,8 L3,15 L0,12 L-3,15 Z" fill="#2c5530"/>
      <path d="M-8,0 L-15,3 L-12,0 L-15,-3 Z" fill="#2c5530"/>
      <path d="M5.7,-5.7 L12,-9 L9,-6 L12,-3 Z" fill="#2c5530"/>
      <path d="M5.7,5.7 L9,12 L6,9 L3,12 Z" fill="#2c5530"/>
      <path d="M-5.7,5.7 L-12,9 L-9,6 L-12,3 Z" fill="#2c5530"/>
      <path d="M-5.7,-5.7 L-9,-12 L-6,-9 L-3,-12 Z" fill="#2c5530"/>
    </g>
    <!-- Four-pointed star (left) - made smaller and moved up -->
    <g transform="translate(-25,-15)">
      <path d="M0,-3 L-1,-1.5 L0,0 L1,-1.5 Z" fill="#2c5530"/>
      <path d="M3,0 L1.5,-1 L0,0 L1.5,1 Z" fill="#2c5530"/>
      <path d="M0,3 L1,1.5 L0,0 L-1,1.5 Z" fill="#2c5530"/>
      <path d="M-3,0 L-1.5,1 L0,0 L-1.5,-1 Z" fill="#2c5530"/>
    </g>
    <!-- Crescent moon (right) -->
    <path d="M20,-15 C25,-15 25,-10 20,-10 C22,-12.5 22,-12.5 20,-15" fill="#2c5530"/>
    <!-- Horizontal ground lines -->
    <line x1="-25" y1="20" x2="25" y2="20" stroke="#2c5530" stroke-width="1"/>
    <line x1="-48" y1="28" x2="48" y2="28" stroke="#2c5530" stroke-width="1.5"/>
    <line x1="-30" y1="25" x2="30" y2="25" stroke="#2c5530" stroke-width="1"/>
    <!-- Tree roots -->
    <g stroke="#2c5530" stroke-width="1.5" fill="none">
      <path d="M-5,15 Q-10,20 -15,25"/>
      <path d="M0,18 Q0,23 0,28"/>
      <path d="M5,15 Q10,20 15,25"/>
      <path d="M-2,16 Q-7,21 -12,26"/>
      <path d="M2,16 Q7,21 12,26"/>
    </g>
  </g>
  
  <!-- ALIGNED text -->
  <text x="230" y="75" class="logo-text-green aligned">ALIGNED</text>
  
  <!-- EMERGENCE text -->
  <text x="220" y="170" class="logo-text-green emergence">EMERGENCE</text>
</svg>
