<svg viewBox="0 0 1000 200" xmlns="http://www.w3.org/2000/svg">
  <defs>
    <style>
      .logo-text {
        font-family: 'Georgia', 'Times New Roman', serif;
        font-weight: bold;
        fill: #F5E4C3;
        letter-spacing: 0.05em;
      }
      .aligned {
        font-size: 72px;
      }
      .emergence {
        font-size: 72px;
      }
      .geometric-lines {
        fill: none;
        stroke: #F5E4C3;
        stroke-width: 2;
        stroke-linecap: round;
        stroke-linejoin: round;
      }
    </style>
  </defs>
  
  <!-- Aligned Emergence compass-tree symbol -->
  <g transform="translate(100, 100) scale(1.8)">
    <!-- Outer compass circle -->
    <circle cx="0" cy="0" r="48" fill="none" stroke="#F5E4C3" stroke-width="2"/>
    <!-- Cardinal direction markers -->
    <line x1="0" y1="-48" x2="0" y2="-38" stroke="#F5E4C3" stroke-width="2"/>
    <line x1="0" y1="38" x2="0" y2="48" stroke="#F5E4C3" stroke-width="2"/>
    <line x1="-48" y1="0" x2="-38" y2="0" stroke="#F5E4C3" stroke-width="2"/>
    <line x1="38" y1="0" x2="48" y2="0" stroke="#F5E4C3" stroke-width="2"/>
    <!-- Tree trunk -->
    <line x1="0" y1="0" x2="0" y2="15" stroke="#F5E4C3" stroke-width="3"/>
    <!-- Tree leaves/crown (sun-like flower) -->
    <g transform="translate(0,-15)">
      <!-- Central circle -->
      <circle cx="0" cy="0" r="4" fill="none" stroke="#F5E4C3" stroke-width="1.5"/>
      <!-- Petals/rays -->
      <path d="M0,-8 L-3,-15 L0,-12 L3,-15 Z" fill="#F5E4C3"/>
      <path d="M8,0 L15,-3 L12,0 L15,3 Z" fill="#F5E4C3"/>
      <path d="M0,8 L3,15 L0,12 L-3,15 Z" fill="#F5E4C3"/>
      <path d="M-8,0 L-15,3 L-12,0 L-15,-3 Z" fill="#F5E4C3"/>
      <path d="M5.7,-5.7 L12,-9 L9,-6 L12,-3 Z" fill="#F5E4C3"/>
      <path d="M5.7,5.7 L9,12 L6,9 L3,12 Z" fill="#F5E4C3"/>
      <path d="M-5.7,5.7 L-12,9 L-9,6 L-12,3 Z" fill="#F5E4C3"/>
      <path d="M-5.7,-5.7 L-9,-12 L-6,-9 L-3,-12 Z" fill="#F5E4C3"/>
    </g>
    <!-- Four-pointed star (left) -->
    <g transform="translate(-25,-10)">
      <path d="M0,-6 L-2,-3 L0,0 L2,-3 Z" fill="#F5E4C3"/>
      <path d="M6,0 L3,-2 L0,0 L3,2 Z" fill="#F5E4C3"/>
      <path d="M0,6 L2,3 L0,0 L-2,3 Z" fill="#F5E4C3"/>
      <path d="M-6,0 L-3,2 L0,0 L-3,-2 Z" fill="#F5E4C3"/>
    </g>
    <!-- Crescent moon (right) -->
    <path d="M20,-15 C25,-15 25,-10 20,-10 C22,-12.5 22,-12.5 20,-15" fill="#F5E4C3"/>
    <!-- Horizontal ground line -->
    <line x1="-20" y1="0" x2="20" y2="0" stroke="#F5E4C3" stroke-width="1.5"/>
    <!-- Tree roots -->
    <g stroke="#F5E4C3" stroke-width="1.5" fill="none">
      <path d="M-5,15 Q-10,20 -15,25"/>
      <path d="M0,18 Q0,23 0,28"/>
      <path d="M5,15 Q10,20 15,25"/>
      <path d="M-2,16 Q-7,21 -12,26"/>
      <path d="M2,16 Q7,21 12,26"/>
    </g>
  </g>
  
  <!-- ALIGNED text -->
  <text x="220" y="80" class="logo-text aligned">ALIGNED</text>
  
  <!-- EMERGENCE text -->
  <text x="220" y="160" class="logo-text emergence">EMERGENCE</text>
</svg>
